<svg width="26" height="27" viewBox="0 0 26 27" fill="none" xmlns="http://www.w3.org/2000/svg">
<path opacity="0.4" fill-rule="evenodd" clip-rule="evenodd" d="M6.38345 22.6356C6.38345 21.7284 7.11785 20.994 8.02505 20.994C8.92145 20.994 9.65585 21.7284 9.65585 22.6356C9.65585 23.532 8.92145 24.2664 8.02505 24.2664C7.11785 24.2664 6.38345 23.532 6.38345 22.6356ZM18.5335 22.6356C18.5335 21.7284 19.2679 20.994 20.1751 20.994C21.0715 20.994 21.8059 21.7284 21.8059 22.6356C21.8059 23.532 21.0715 24.2664 20.1751 24.2664C19.2679 24.2664 18.5335 23.532 18.5335 22.6356Z" fill="url(#paint0_linear_302_235)"/>
<path fill-rule="evenodd" clip-rule="evenodd" d="M21.8061 7.25692C22.4649 7.25692 22.8969 7.48372 23.3289 7.98052C23.7609 8.47732 23.8365 9.19012 23.7393 9.83704L22.7133 16.9218C22.5189 18.2837 21.3525 19.287 19.9809 19.287H8.19807C6.76167 19.287 5.57367 18.1854 5.45487 16.7609L4.46127 4.98784L2.83047 4.70704C2.39847 4.63144 2.09607 4.21024 2.17167 3.77824C2.24727 3.33544 2.66847 3.04384 3.11127 3.10864L5.68707 3.49744C6.05427 3.56332 6.32427 3.86464 6.35667 4.23184L6.56187 6.65104C6.59427 6.99772 6.87507 7.25692 7.22067 7.25692H21.8061ZM15.2613 12.8718H18.2529C18.7065 12.8718 19.0629 12.5046 19.0629 12.0618C19.0629 11.6082 18.7065 11.2518 18.2529 11.2518H15.2613C14.8077 11.2518 14.4513 11.6082 14.4513 12.0618C14.4513 12.5046 14.8077 12.8718 15.2613 12.8718Z" fill="url(#paint1_linear_302_235)"/>
<defs>
<linearGradient id="paint0_linear_302_235" x1="7.54761" y1="20.994" x2="21.572" y2="23.0264" gradientUnits="userSpaceOnUse">
<stop stop-color="#5FCD70"/>
<stop offset="1" stop-color="#0E826B"/>
</linearGradient>
<linearGradient id="paint1_linear_302_235" x1="3.79181" y1="3.09965" x2="23.8281" y2="3.92241" gradientUnits="userSpaceOnUse">
<stop stop-color="#5FCD70"/>
<stop offset="1" stop-color="#0E826B"/>
</linearGradient>
</defs>
</svg>
